<mxfile host="app.diagrams.net" modified="2023-05-30T15:57:09.739Z" agent="Mozilla/5.0 (Windows NT 10.0; Win64; x64) AppleWebKit/537.36 (KHTML, like Gecko) Chrome/113.0.0.0 Safari/537.36" etag="BuNvcD05JsTbcMGh4dbU" version="21.3.5" type="github">
  <diagram name="Page-1" id="ErKtEGxK34BmX63rKQmE">
    <mxGraphModel dx="1114" dy="576" grid="1" gridSize="10" guides="1" tooltips="1" connect="1" arrows="1" fold="1" page="1" pageScale="1" pageWidth="827" pageHeight="1169" math="0" shadow="0">
      <root>
        <mxCell id="0" />
        <mxCell id="1" parent="0" />
        <mxCell id="pTcyYgcKwSgchIV8pG_k-1" value="&lt;font style=&quot;font-size: 10px;&quot;&gt;Landing Page&lt;/font&gt;" style="ellipse;whiteSpace=wrap;html=1;" vertex="1" parent="1">
          <mxGeometry x="630" y="120" width="120" height="40" as="geometry" />
        </mxCell>
        <mxCell id="pTcyYgcKwSgchIV8pG_k-2" value="&lt;font style=&quot;font-size: 10px;&quot;&gt;Paket Wedding&lt;/font&gt;" style="ellipse;whiteSpace=wrap;html=1;" vertex="1" parent="1">
          <mxGeometry x="630" y="180" width="120" height="40" as="geometry" />
        </mxCell>
        <mxCell id="pTcyYgcKwSgchIV8pG_k-3" value="&lt;font style=&quot;font-size: 10px;&quot;&gt;Jenis Paket&lt;/font&gt;" style="ellipse;whiteSpace=wrap;html=1;" vertex="1" parent="1">
          <mxGeometry x="630" y="240" width="120" height="40" as="geometry" />
        </mxCell>
        <mxCell id="pTcyYgcKwSgchIV8pG_k-4" value="&lt;font style=&quot;font-size: 10px;&quot;&gt;Petunjuk dan Persyaratan&lt;/font&gt;" style="ellipse;whiteSpace=wrap;html=1;" vertex="1" parent="1">
          <mxGeometry x="630" y="300" width="120" height="40" as="geometry" />
        </mxCell>
        <mxCell id="pTcyYgcKwSgchIV8pG_k-5" value="&lt;font style=&quot;font-size: 10px;&quot;&gt;Register&lt;/font&gt;" style="ellipse;whiteSpace=wrap;html=1;" vertex="1" parent="1">
          <mxGeometry x="630" y="490" width="120" height="40" as="geometry" />
        </mxCell>
        <mxCell id="pTcyYgcKwSgchIV8pG_k-6" value="Visitor" style="shape=umlActor;verticalLabelPosition=bottom;verticalAlign=top;html=1;" vertex="1" parent="1">
          <mxGeometry x="520" y="260" width="20" height="40" as="geometry" />
        </mxCell>
        <mxCell id="pTcyYgcKwSgchIV8pG_k-7" value="" style="endArrow=classic;html=1;rounded=0;exitX=1;exitY=0.3333333333333333;exitDx=0;exitDy=0;exitPerimeter=0;entryX=0;entryY=0.5;entryDx=0;entryDy=0;" edge="1" parent="1" source="pTcyYgcKwSgchIV8pG_k-6" target="pTcyYgcKwSgchIV8pG_k-1">
          <mxGeometry width="50" height="50" relative="1" as="geometry">
            <mxPoint x="550" y="270" as="sourcePoint" />
            <mxPoint x="600" y="220" as="targetPoint" />
          </mxGeometry>
        </mxCell>
        <mxCell id="pTcyYgcKwSgchIV8pG_k-8" value="" style="endArrow=classic;html=1;rounded=0;entryX=0;entryY=0.5;entryDx=0;entryDy=0;exitX=1;exitY=0.3333333333333333;exitDx=0;exitDy=0;exitPerimeter=0;" edge="1" parent="1" source="pTcyYgcKwSgchIV8pG_k-6" target="pTcyYgcKwSgchIV8pG_k-2">
          <mxGeometry width="50" height="50" relative="1" as="geometry">
            <mxPoint x="540" y="270" as="sourcePoint" />
            <mxPoint x="660" y="160" as="targetPoint" />
          </mxGeometry>
        </mxCell>
        <mxCell id="pTcyYgcKwSgchIV8pG_k-9" value="" style="endArrow=classic;html=1;rounded=0;entryX=0;entryY=0.5;entryDx=0;entryDy=0;exitX=1;exitY=0.3333333333333333;exitDx=0;exitDy=0;exitPerimeter=0;" edge="1" parent="1" source="pTcyYgcKwSgchIV8pG_k-6" target="pTcyYgcKwSgchIV8pG_k-3">
          <mxGeometry width="50" height="50" relative="1" as="geometry">
            <mxPoint x="540" y="270" as="sourcePoint" />
            <mxPoint x="670" y="170" as="targetPoint" />
          </mxGeometry>
        </mxCell>
        <mxCell id="pTcyYgcKwSgchIV8pG_k-10" value="" style="endArrow=classic;html=1;rounded=0;exitX=1;exitY=0.3333333333333333;exitDx=0;exitDy=0;exitPerimeter=0;entryX=0;entryY=0.5;entryDx=0;entryDy=0;" edge="1" parent="1" source="pTcyYgcKwSgchIV8pG_k-6" target="pTcyYgcKwSgchIV8pG_k-4">
          <mxGeometry width="50" height="50" relative="1" as="geometry">
            <mxPoint x="570" y="303" as="sourcePoint" />
            <mxPoint x="680" y="180" as="targetPoint" />
          </mxGeometry>
        </mxCell>
        <mxCell id="pTcyYgcKwSgchIV8pG_k-11" value="" style="endArrow=classic;html=1;rounded=0;exitX=1;exitY=0.3333333333333333;exitDx=0;exitDy=0;exitPerimeter=0;entryX=0;entryY=0.5;entryDx=0;entryDy=0;" edge="1" parent="1" source="pTcyYgcKwSgchIV8pG_k-6" target="pTcyYgcKwSgchIV8pG_k-5">
          <mxGeometry width="50" height="50" relative="1" as="geometry">
            <mxPoint x="580" y="313" as="sourcePoint" />
            <mxPoint x="660" y="340" as="targetPoint" />
          </mxGeometry>
        </mxCell>
        <mxCell id="pTcyYgcKwSgchIV8pG_k-12" value="&lt;font style=&quot;font-size: 10px;&quot;&gt;Artikel&lt;/font&gt;" style="ellipse;whiteSpace=wrap;html=1;" vertex="1" parent="1">
          <mxGeometry x="630" y="360" width="120" height="40" as="geometry" />
        </mxCell>
        <mxCell id="pTcyYgcKwSgchIV8pG_k-13" value="" style="endArrow=classic;html=1;rounded=0;entryX=0;entryY=0.5;entryDx=0;entryDy=0;exitX=1;exitY=0.3333333333333333;exitDx=0;exitDy=0;exitPerimeter=0;" edge="1" parent="1" source="pTcyYgcKwSgchIV8pG_k-6" target="pTcyYgcKwSgchIV8pG_k-12">
          <mxGeometry width="50" height="50" relative="1" as="geometry">
            <mxPoint x="550" y="280" as="sourcePoint" />
            <mxPoint x="640" y="310" as="targetPoint" />
          </mxGeometry>
        </mxCell>
        <mxCell id="pTcyYgcKwSgchIV8pG_k-14" value="&lt;font style=&quot;font-size: 10px;&quot;&gt;Testimoni&lt;/font&gt;" style="ellipse;whiteSpace=wrap;html=1;" vertex="1" parent="1">
          <mxGeometry x="630" y="420" width="120" height="40" as="geometry" />
        </mxCell>
        <mxCell id="pTcyYgcKwSgchIV8pG_k-15" value="" style="endArrow=classic;html=1;rounded=0;entryX=0;entryY=0.5;entryDx=0;entryDy=0;exitX=1;exitY=0.3333333333333333;exitDx=0;exitDy=0;exitPerimeter=0;" edge="1" parent="1" source="pTcyYgcKwSgchIV8pG_k-6" target="pTcyYgcKwSgchIV8pG_k-14">
          <mxGeometry width="50" height="50" relative="1" as="geometry">
            <mxPoint x="550" y="283" as="sourcePoint" />
            <mxPoint x="640" y="390" as="targetPoint" />
          </mxGeometry>
        </mxCell>
      </root>
    </mxGraphModel>
  </diagram>
</mxfile>
